<svg width="300" height="300" xmlns="http://www.w3.org/2000/svg" xml:space="preserve" version="1.1">
 <g>
  <title>Layer 1</title>
  <path stroke="#ffffff" id="svg_1" fill="#00b3be" d="m233.21733,91.83857c-0.3,-4.3 -3.4,-7.9 -7.6,-8.9c-43.5,-10 -65.9,-25.2 -75.7,-33.9c-3.8,-3.4 -9.5,-3.4 -13.3,-0.1c-9.9,8.8 -32.2,23.9 -75.8,33.9c-4.2,1 -7.3,4.6 -7.6,8.9c-0.9,11.8 1.7,47.84091 5,62.4c3.3,14.55909 9.33882,42.63463 24.78657,64.22864c15.44775,21.59401 48.12812,39.31255 60.86458,39.36912c12.73646,0.05657 42.53076,-12.99457 58.96516,-37.16372c16.4344,-24.16915 20.0977,-39.88493 24.45559,-62.35789c4.35789,-22.47296 6.9281,-53.47615 5.9281,-66.37615" class="st0" stroke-width="3"/>
  <path transform="rotate(-21.392 234.289 165.107)" fill="#9b9b9b" stroke-width="15" opacity="undefined" d="m235.47498,198.76793c-10.84914,0 -15.15602,-4.8863 -15.15602,-30.39111c0,-25.50481 1.40748,-36.93097 12.25661,-36.93097c10.84914,0 15.68319,9.11797 15.68319,34.62278c0,25.50481 -1.93464,32.69929 -12.78378,32.69929l0,0.00001z" id="svg_9" stroke="#515151"/>
  <g id="svg_11" stroke="null">
   <path id="svg_22" d="m175.56422,162.22442c-10.49318,0 -19.69916,-6.22906 -19.69916,-14.12961c0,-7.90053 9.88242,-19.41227 20.37561,-19.41227c10.49318,0 20.25603,11.7552 19.93999,20.46138c-0.31604,8.70616 -10.12324,13.08049 -20.61644,13.08049l0,0.00001z" opacity="undefined" fill="#ffffff" stroke="#000000"/>
   <path id="svg_2" d="m111.159,162.31673c-11.00766,0 -20.66499,-5.82223 -20.66499,-13.20673c0,-7.38452 10.36695,-18.14437 21.3746,-18.14437c11.00764,0 21.24913,10.98743 20.9176,19.12495c-0.33153,8.13752 -10.61956,12.22616 -21.62722,12.22616l0.00001,-0.00001z" opacity="undefined" fill="#ffffff" stroke="#000000"/>
   <path fill="#ffffff" opacity="undefined" d="m144.04598,210.23502c-12.82571,0 -23.21453,-9.49968 -23.21453,-21.22769c0,-11.728 9.03297,0.469 21.85868,0.469c12.82571,0 24.57039,-12.197 24.57039,-0.469c0,11.728 -10.38882,21.22769 -23.21453,21.22769l-0.00001,0z" id="svg_4" stroke="#000000"/>
  </g>
  <ellipse fill="#9b9b9b" cx="207.23322" cy="101.90904" id="svg_7" rx="44.94086" ry="45.6408" stroke-width="15" stroke="#515151"/>
 </g>

</svg>