<svg width="300" height="300" xmlns="http://www.w3.org/2000/svg" version="1.1" xml:space="preserve">
 <g>
  <title>Layer 1</title>
  <path stroke="#ffffff" class="st0" d="m213.55896,88.7c-0.3,-4.3 -3.4,-7.9 -7.6,-8.9c-43.5,-10 -65.9,-25.2 -75.7,-33.9c-3.8,-3.4 -9.5,-3.4 -13.3,-0.1c-9.9,8.8 -32.2,23.9 -75.8,33.9c-4.2,1 -7.3,4.6 -7.6,8.9c-0.9,11.8 1.7,47.84091 5,62.4c3.3,14.55909 9.33882,42.63463 24.78657,64.22864c15.44775,21.59401 48.12812,39.31255 60.86458,39.36912c12.73646,0.05657 42.53076,-12.99457 58.96516,-37.16372c16.4344,-24.16915 20.0977,-39.88493 24.45559,-62.35789c4.35789,-22.47296 6.9281,-53.47615 5.9281,-66.37615" fill="#d30000" id="svg_1"/>
  <path fill="#ffffff" opacity="undefined" d="m83.67266,137.59929c-11.77386,0 -32.56274,4.29548 -32.56274,-2.65957c0,-6.95506 12.10093,-14.71631 23.87479,-14.71631c11.77386,0 32.15357,12.72579 31.79896,20.39007c-0.35461,7.66428 -11.33716,-3.01418 -23.11102,-3.01418l0.00001,-0.00001z" id="svg_15" stroke="#ffffff"/>
  <path stroke="#ffffff" fill="#ffffff" opacity="undefined" d="m162.28013,138.66312c-12.24482,0 -24.64539,9.61463 -24.64539,2.65957c0,-6.95505 17.0105,-21.09929 29.25532,-21.09929c12.24482,0 26.06383,9.1797 26.06383,16.13476c0,6.95505 -18.42894,2.30496 -30.67376,2.30496z" id="svg_17"/>
  <path stroke="#ffffff" fill="#ffffff" opacity="undefined" d="m122.91843,219.51418c-21.45292,0 -39.1844,-17.4376 -39.1844,-21.4539c0,-4.0163 17.37687,5.49645 38.82979,5.49645c21.45292,0 38.82979,-9.51275 38.82979,-5.49645c0,4.0163 -17.02226,21.4539 -38.47518,21.4539z" id="svg_18"/>
  <g stroke="null" id="svg_2">
   <path stroke="#ffffff" fill="#d30000" opacity="undefined" d="m256.24143,185.55824c-12.38872,0 -22.42359,-27.42061 -22.42359,-61.27321c0,-16.9263 -0.7775,-50.45151 1.54005,-55.00242c2.31755,-4.55092 15.46241,-4.17001 21.65677,-4.17001c6.19436,0 18.61433,0.61111 20.7869,4.98697c2.17257,4.37586 0.86348,37.25915 0.86348,54.18545c0,33.8526 -10.03488,61.27321 -22.4236,61.27321l0,0.00001z" id="svg_20"/>
   <ellipse stroke="#ffffff" fill="#d30000" cx="255.21891" cy="213.20359" id="svg_21" rx="18.57234" ry="17.69641"/>
  </g>
 </g>

</svg>