<svg width="300" height="300" xmlns="http://www.w3.org/2000/svg" xml:space="preserve" version="1.1">
 <g>
  <title>Layer 1</title>
  <path stroke="#ffffff" id="svg_1" fill="#00007f" d="m240.53749,89.99141c-0.32993,-4.5646 -3.73926,-8.38613 -8.35833,-9.44766c-47.84047,-10.61535 -72.47556,-26.75069 -83.25342,-35.98605c-4.17917,-3.60922 -10.44792,-3.60922 -14.62709,-0.10615c-10.88783,9.34151 -35.41295,25.3707 -83.36339,35.98605c-4.61908,1.06154 -8.0284,4.88306 -8.35833,9.44766c-0.9898,12.52612 1.86963,50.78482 5.4989,66.23981c3.62928,15.45499 10.27066,45.25817 27.2598,68.18097c16.98914,22.92281 52.93039,41.73166 66.9377,41.79171c14.00732,0.06005 46.77452,-13.7942 64.84876,-39.4506c18.07424,-25.65641 22.10307,-42.33926 26.89579,-66.19511c4.79272,-23.85584 7.61939,-56.76682 6.51961,-70.46063" class="st0"/>
  <path id="svg_18" d="m140.41338,217.99903c-21.45292,0 -31.41413,-12.88261 -31.41413,-16.89891c0,-4.0163 12.2431,-0.91493 33.69602,-0.91493c21.45292,0 31.12572,-2.08785 31.12572,1.92845c0,4.0163 -11.95469,15.8854 -33.40761,15.8854l0,-0.00001z" opacity="undefined" fill="#ffffff" stroke="#ffffff"/>
  <g stroke="null" id="svg_2">
   <path stroke="#ffffff" id="svg_15" d="m100.38028,141.06004c-10.778,0 -23.93252,-0.07217 -23.93252,-5.27889c0,-5.20672 10.45889,-14.55775 21.23689,-14.55775c10.778,0 30.05248,4.97438 29.72787,10.71204c-0.32462,5.73765 -16.25423,9.1246 -27.03224,9.1246z" opacity="undefined" fill="#ffffff"/>
   <path stroke="#ffffff" id="svg_17" d="m178.08623,141.04311c-10.5906,-1.01165 -21.17384,-2.57659 -21.17384,-7.7833c0,-5.20671 18.65498,-11.24297 29.86411,-11.24297c11.20913,0 19.54523,11.17165 19.54523,16.37837c0,5.20671 -17.6449,3.65956 -28.2355,2.6479l0,0.00001z" opacity="undefined" fill="#ffffff"/>
  </g>
  <path transform="rotate(13.4023 159.203 60.0704)" stroke-width="3" stroke="#ffffff" id="svg_20" d="m147.44595,123.70244c-17.27668,0 -66.81113,-28.89684 -66.81113,-46.68096c0,-17.78412 30.50716,-27.72623 37.68803,-23.11726c7.18086,4.60897 17.61415,25.59631 26.25249,25.59631c8.63834,0 89.14143,-87.48466 92.17119,-82.88703c3.02976,4.59763 0.36306,29.00145 -21.99578,61.26568c-22.35886,32.26424 -50.0281,65.82326 -67.30478,65.82326l-0.00001,0z" opacity="undefined" fill="#00ff00"/>
 </g>

</svg>