<svg width="300" height="300" xmlns="http://www.w3.org/2000/svg" xml:space="preserve" version="1.1">
 <g>
  <title>Layer 1</title>
  <path stroke="#ffffff" id="svg_1" fill="#00b3be" d="m216.55896,100.2c-0.3,-4.3 -3.4,-7.9 -7.6,-8.9c-43.5,-10 -65.9,-25.2 -75.7,-33.9c-3.8,-3.4 -9.5,-3.4 -13.3,-0.1c-9.9,8.8 -32.2,23.9 -75.8,33.9c-4.2,1 -7.3,4.6 -7.6,8.9c-0.9,11.8 1.7,47.84091 5,62.4c3.3,14.55909 9.33882,42.63463 24.78657,64.22864c15.44775,21.59401 48.12812,39.31255 60.86458,39.36912c12.73646,0.05657 42.53076,-12.99457 58.96516,-37.16372c16.4344,-24.16915 20.0977,-39.88493 24.45559,-62.35789c4.35789,-22.47296 6.9281,-53.47615 5.9281,-66.37615" class="st0"/>
  <path stroke="#ffffff" id="svg_15" d="m168.13367,161.75121c-11.77386,0 -22.10342,-5.48362 -22.10342,-12.43867c0,-6.95506 11.08856,-17.08914 22.86242,-17.08914c11.77386,0 22.72824,10.34842 22.37363,18.01269c-0.35461,7.66428 -11.35877,11.51512 -23.13263,11.51512z" opacity="undefined" fill="#ffffff"/>
  <path transform="rotate(6.82997 219.263 100.311)" stroke-width="3" id="svg_20" d="m198.21213,72.31928c-2.83103,7.90753 4.37657,9.16328 2.67726,14.6237c-1.69931,5.46042 -36.24925,8.55477 -39.78634,-8.96501c-3.53708,-17.51978 19.03415,-42.57749 47.46484,-50.92341c28.43068,-8.34592 50.85746,9.11274 62.79737,25.29086c11.93991,16.17814 4.79375,38.5003 -1.82872,51.45721c-6.62247,12.95691 -24.43544,19.81648 -33.66134,32.66125c-9.22589,12.84474 -9.86009,25.47262 -10.22824,30.4588c-0.73631,9.97236 -17.60639,9.30389 -24.06218,8.19804c-6.45579,-1.10586 -12.91641,-5.95139 -8.94848,-24.61991c3.9679,-18.66852 15.07611,-26.8814 28.08822,-40.66471c13.01213,-13.78332 12.1869,-15.95483 14.64555,-22.43453c4.91731,-12.95941 -3.61479,-22.84668 -13.55027,-25.53813c-9.93545,-2.69142 -20.77663,2.54833 -23.60766,10.45584l-0.00001,0z" opacity="undefined" fill="#d30000" stroke="#ffffff"/>
  <path stroke="#ffffff" id="svg_22" d="m83.95858,160.40441c-11.77386,0 -22.10341,-5.48361 -22.10341,-12.43867c0,-6.95505 11.08855,-17.08914 22.86242,-17.08914c11.77386,0 22.72824,10.34842 22.37363,18.0127c-0.35461,7.66427 -11.35877,11.51511 -23.13264,11.51511z" opacity="undefined" fill="#ffffff"/>
  <ellipse stroke-width="3" ry="20.25588" rx="18.75588" id="svg_23" cy="202.51336" cx="185.94205" fill="#d30000" stroke="#ffffff"/>
 </g>
</svg>