<svg width="300" height="300" xmlns="http://www.w3.org/2000/svg" version="1.1" xml:space="preserve">
 <g>
  <title>Layer 1</title>
  <path class="st0" d="m239.12635,92.74772c-0.3,-4.3 -3.4,-7.9 -7.6,-8.9c-43.5,-10 -65.9,-25.2 -75.7,-33.9c-3.8,-3.4 -9.5,-3.4 -13.3,-0.1c-9.9,8.8 -32.2,23.9 -75.8,33.9c-4.2,1 -7.3,4.6 -7.6,8.9c-0.9,11.8 1.7,47.84091 5,62.4c3.3,14.55909 9.33882,42.63463 24.78657,64.22864c15.44775,21.59401 48.12812,39.31255 60.86458,39.36912c12.73646,0.05657 42.53076,-12.99457 58.96516,-37.16372c16.4344,-24.16915 20.0977,-39.88493 24.45559,-62.35789c4.35789,-22.47296 6.9281,-53.47615 5.9281,-66.37615" fill="#00b3be" id="svg_1" stroke="#ffffff"/>
  <path id="svg_2" d="m149.27042,182.65989c-9.96287,0 -18.03279,-22.00888 -18.03279,-49.18033c0,-13.58572 -1.82867,-31.92476 1.43417,-40.82341c3.26284,-8.89865 11.61718,-8.35692 16.59862,-8.35692c4.98143,0 14.15995,-1.09118 17.42278,7.80747c3.26284,8.89865 0.61,27.78713 0.61,41.37286c0,27.17145 -8.06992,49.18033 -18.03278,49.18033z" opacity="undefined" stroke="#ffffff" fill="#fff"/>
  <ellipse ry="14.01097" rx="14.14834" id="svg_4" cy="213.40623" cx="149.03816" stroke="#ffffff" fill="#fff"/>
 </g>

</svg>